<mxfile host="app.diagrams.net" modified="2023-12-14T17:24:09.667Z" agent="Mozilla/5.0 (Macintosh; Intel Mac OS X 10_15_7) AppleWebKit/537.36 (KHTML, like Gecko) Chrome/120.0.0.0 Safari/537.36" version="22.1.9" etag="JSLgz_WkICiEUKM60d1O" type="github">
  <diagram name="PÃ¡gina-1" id="KXMcZXeuS8UndHeKjVef">
    <mxGraphModel>
      <root>
        <mxCell id="0" />
        <mxCell id="1" parent="0" />
      </root>
    </mxGraphModel>
  </diagram>
</mxfile>
